<?xml version="1.0" encoding="UTF-8" standalone="no"?>
<!-- Uploaded to: SVG Repo, www.svgrepo.com, Generator: SVG Repo Mixer Tools -->

<svg
   version="1.0"
   id="Layer_1"
   width="24"
   height="24"
   viewBox="0 0 1.92 1.92"
   enable-background="new 0 0 64 64"
   xml:space="preserve"
   xmlns="http://www.w3.org/2000/svg"
   xmlns:svg="http://www.w3.org/2000/svg"><defs
   id="defs6" />
<g
   id="g6"
   transform="matrix(0.02062463,0,0,0.02062463,0.30001184,0.30001184)"
   style="stroke:#ffffff;stroke-width:5.81944;stroke-dasharray:none;stroke-opacity:1">
	
	<path
   fill="#394240"
   d="M 60,0 H 4 C 1.789,0 0,1.789 0,4 v 40 c 0,2.211 1.789,4 4,4 h 8 v 15 c 0,0.404 0.243,0.77 0.617,0.924 C 12.741,63.976 12.871,64 13,64 c 0.26,0 0.516,-0.102 0.707,-0.293 L 29.414,48 H 60 c 2.211,0 4,-1.789 4,-4 V 4 C 64,1.789 62.211,0 60,0 Z m 2,44 c 0,1.104 -0.896,2 -2,2 0,0 -29.46,0 -30.501,0 -1.041,0 -1.791,0.791 -1.791,0.791 L 14,60.5 V 47 c 0,-0.553 -0.447,-1 -1,-1 H 4 C 2.896,46 2,45.104 2,44 V 4 C 2,2.896 2.896,2 4,2 h 56 c 1.104,0 2,0.896 2,2 z"
   id="path2"
   style="fill:none;fill-opacity:1;stroke:#ffffff;stroke-width:5.81944;stroke-linejoin:round;stroke-dasharray:none;stroke-opacity:1" />
	
	<path
   fill="#394240"
   d="M 49,16.969427 H 15 c -0.553,0 -1,0.447 -1,1 0,0.553 0.447,1 1,1 h 34 c 0.553,0 1,-0.447 1,-1 0,-0.553 -0.447,-1 -1,-1 z"
   id="path4"
   style="fill:none;fill-opacity:1;stroke:#ffffff;stroke-width:5.81944;stroke-linejoin:round;stroke-dasharray:none;stroke-opacity:1" />
	
	<path
   fill="#394240"
   d="M 45,28.969427 H 15 c -0.553,0 -1,0.447 -1,1 0,0.553 0.447,1 1,1 h 30 c 0.553,0 1,-0.447 1,-1 0,-0.553 -0.447,-1 -1,-1 z"
   id="path6"
   style="fill:none;fill-opacity:1;stroke:#ffffff;stroke-width:5.81944;stroke-linejoin:round;stroke-dasharray:none;stroke-opacity:1" />
</g>
</svg>
