<?xml version="1.0" encoding="UTF-8" standalone="no"?>
<!-- Uploaded to: SVG Repo, www.svgrepo.com, Generator: SVG Repo Mixer Tools -->

<svg
   width="24"
   height="24"
   viewBox="0 0 0.72 0.72"
   fill="none"
   version="1.1"
   id="svg1"
   sodipodi:docname="heart.svg"
   inkscape:version="1.4 (86a8ad7, 2024-10-11)"
   xmlns:inkscape="http://www.inkscape.org/namespaces/inkscape"
   xmlns:sodipodi="http://sodipodi.sourceforge.net/DTD/sodipodi-0.dtd"
   xmlns="http://www.w3.org/2000/svg"
   xmlns:svg="http://www.w3.org/2000/svg">
  <sodipodi:namedview
     id="namedview1"
     pagecolor="#505050"
     bordercolor="#ffffff"
     borderopacity="1"
     inkscape:showpageshadow="0"
     inkscape:pageopacity="0"
     inkscape:pagecheckerboard="1"
     inkscape:deskcolor="#505050"
     inkscape:zoom="13.208333"
     inkscape:cx="9.4637224"
     inkscape:cy="16.126183"
     inkscape:window-width="1440"
     inkscape:window-height="878"
     inkscape:window-x="-6"
     inkscape:window-y="-6"
     inkscape:window-maximized="1"
     inkscape:current-layer="svg1" />
  <defs
     id="defs1" />
  <path
     fill-rule="evenodd"
     clip-rule="evenodd"
     d="m 0.35999229,0.19893274 c 0.0480617,-0.0560109 0.12837337,-0.0733207 0.18859144,-0.0220316 0.0602185,0.0512891 0.0686964,0.13704135 0.0214066,0.19770186 -0.0393184,0.0504333 -0.15830919,0.15680488 -0.19730822,0.19123386 -0.004362,0.003852 -0.006546,0.005778 -0.00909,0.006533 -0.002219,6.6027e-4 -0.00465,6.6027e-4 -0.006871,0 -0.002545,-7.5576e-4 -0.004724,-0.002684 -0.00909,-0.006533 -0.039003,-0.0344288 -0.15799233,-0.14080041 -0.1973117,-0.19123387 -0.0472896,-0.0606605 -0.0398456,-0.14695232 0.0214079,-0.19770187 0.0612536,-0.0507498 0.1401995,-0.0339793 0.18826111,0.0220315 z"
     stroke="#000000"
     stroke-width="0.0720951"
     stroke-linecap="round"
     stroke-linejoin="round"
     id="path1"
     style="stroke:#ffffff;stroke-width:0.0600117;stroke-linecap:round;stroke-linejoin:round;stroke-dasharray:none;stroke-opacity:1" />
</svg>
